<?xml version="1.0" standalone="no"?>
<!DOCTYPE svg PUBLIC "-//W3C//DTD SVG 20010904//EN"
 "http://www.w3.org/TR/2001/REC-SVG-20010904/DTD/svg10.dtd">
<svg version="1.0" xmlns="http://www.w3.org/2000/svg"
 width="1268.000000pt" height="1268.000000pt" viewBox="0 0 1268.000000 1268.000000"
 preserveAspectRatio="xMidYMid meet">
<metadata>
Created by potrace 1.11, written by Peter Selinger 2001-2013
</metadata>
<g transform="translate(0.000000,1268.000000) scale(0.100000,-0.100000)"
fill="#000000" stroke="none">
<path d="M7998 10719 c-265 -15 -602 -69 -1125 -178 -213 -45 -601 -141 -689
-171 -32 -11 -58 -19 -60 -18 -1 2 -5 48 -9 102 -4 54 -13 117 -21 138 -56
159 -199 169 -267 18 -16 -36 -21 -73 -25 -187 l-4 -142 -37 -5 c-222 -34
-794 -41 -1066 -12 -299 31 -525 78 -790 163 -352 112 -566 136 -742 82 -88
-27 -164 -100 -187 -179 -47 -159 11 -323 147 -411 129 -84 274 -117 537 -126
277 -8 612 33 1153 141 417 84 825 186 970 241 16 7 17 -15 17 -364 l0 -371
-1322 0 c-1420 0 -1421 0 -1592 -51 -404 -121 -728 -441 -850 -841 -55 -181
-56 -191 -56 -1363 0 -1172 1 -1182 56 -1363 141 -462 539 -804 1020 -877 149
-22 5679 -22 5828 0 481 73 879 415 1020 877 55 181 56 191 56 1363 0 1172 -1
1182 -56 1363 -118 388 -421 697 -810 828 -182 61 -94 57 -1598 63 l-1378 6 1
395 c1 217 3 395 4 396 10 11 242 26 457 31 516 12 932 -40 1330 -164 299 -94
440 -123 596 -124 200 -1 313 51 371 169 24 50 28 69 28 147 0 77 -4 98 -27
148 -97 207 -406 304 -880 276z m-213 -2142 c231 -59 421 -166 588 -332 168
-167 279 -367 338 -605 20 -82 23 -119 23 -280 0 -161 -3 -198 -23 -280 -102
-414 -380 -734 -773 -889 -153 -60 -245 -75 -448 -75 -161 0 -198 3 -280 23
-414 102 -734 380 -889 773 -60 153 -75 245 -75 448 0 161 3 198 23 280 59
238 170 438 338 605 171 170 377 284 603 334 140 30 132 30 310 26 136 -2 182
-7 265 -28z m-3137 -423 c151 -30 301 -109 419 -218 91 -84 151 -168 202 -278
65 -141 76 -193 75 -368 0 -177 -11 -232 -75 -368 -51 -111 -112 -194 -202
-278 -167 -155 -369 -234 -597 -234 -228 0 -430 79 -597 234 -91 84 -151 168
-202 278 -65 141 -76 193 -76 368 0 175 11 227 76 368 51 110 111 194 202 278
115 107 266 187 412 218 94 19 267 20 363 0z"/>
<path d="M11008 8073 l-698 -256 0 -776 0 -777 698 -340 697 -341 3 683 c1
375 1 993 0 1372 l-3 690 -697 -255z"/>
<path d="M970 7150 l0 -620 330 0 330 0 0 620 0 620 -330 0 -330 0 0 -620z"/>
<path d="M3107 4562 c87 -97 216 -244 288 -325 l130 -147 2420 0 2420 0 130
147 c72 81 201 228 288 325 l158 178 -2996 0 -2996 0 158 -178z"/>
<path d="M4255 3625 c-304 -56 -505 -289 -555 -645 -13 -94 -5 -361 14 -447
86 -393 380 -613 762 -571 308 34 517 238 590 574 23 110 23 407 0 519 -62
290 -240 494 -491 560 -80 21 -234 26 -320 10z m281 -300 c29 -14 67 -42 85
-62 43 -49 86 -144 104 -229 20 -93 20 -367 0 -470 -41 -213 -159 -328 -335
-327 -174 1 -290 113 -337 325 -20 90 -22 363 -4 458 34 178 120 290 251 327
67 19 172 9 236 -22z"/>
<path d="M7340 3631 c-175 -26 -327 -112 -426 -244 -117 -156 -164 -325 -164
-590 0 -316 71 -513 239 -669 126 -116 272 -170 461 -170 333 1 572 193 661
530 27 101 37 372 19 505 -37 272 -164 468 -371 572 -36 19 -92 40 -125 49
-73 19 -221 27 -294 17z m237 -301 c62 -26 136 -101 163 -165 42 -98 52 -156
56 -330 6 -255 -28 -398 -116 -498 -85 -97 -231 -128 -363 -78 -86 33 -161
133 -198 263 -21 74 -23 104 -23 278 0 204 7 256 54 364 22 53 91 131 134 153
92 48 201 53 293 13z"/>
<path d="M8905 3630 c-283 -38 -489 -251 -550 -570 -25 -132 -22 -415 5 -550
57 -286 236 -484 482 -536 93 -20 262 -20 358 0 177 37 332 152 405 299 34 69
75 230 62 243 -5 5 -123 7 -319 4 -11 0 -18 -8 -18 -19 0 -10 -9 -48 -20 -83
-34 -112 -113 -169 -253 -183 -182 -19 -303 68 -353 253 -23 87 -29 448 -9
558 30 165 108 266 230 299 105 29 235 8 311 -50 41 -31 83 -116 91 -183 l6
-52 168 0 169 0 0 23 c0 48 -41 180 -76 247 -89 170 -253 275 -470 300 -99 11
-132 11 -219 0z"/>
<path d="M2274 3611 c-2 -2 -4 -370 -4 -818 l0 -813 170 0 170 0 0 300 0 301
136 -3 135 -3 152 -297 151 -298 183 0 c143 0 183 3 183 13 0 7 -4 17 -9 23
-4 5 -41 72 -81 149 -40 77 -76 145 -80 150 -32 45 -181 350 -172 353 32 10
132 84 166 122 113 126 145 350 76 533 -32 84 -119 174 -213 220 -125 61 -177
67 -590 70 -203 1 -371 0 -373 -2z m714 -286 c105 -31 155 -104 156 -225 1
-128 -50 -200 -170 -236 -32 -10 -97 -14 -206 -14 l-158 0 0 245 0 245 163 0
c117 0 178 -4 215 -15z"/>
<path d="M5334 3611 c-2 -2 -4 -371 -4 -818 l0 -814 403 3 c436 5 451 6 575
65 82 38 173 132 201 207 87 234 15 464 -173 547 l-48 21 50 29 c134 76 195
232 161 414 -37 200 -209 325 -473 341 -101 7 -686 11 -692 5z m697 -287 c64
-18 109 -58 128 -113 27 -81 2 -185 -54 -229 -50 -40 -117 -52 -282 -52 l-153
0 0 205 0 205 152 0 c109 0 168 -5 209 -16z m81 -666 c112 -66 130 -261 32
-347 -55 -49 -115 -61 -306 -61 l-168 0 0 221 0 221 198 -4 c194 -3 198 -3
244 -30z"/>
</g>
</svg>
